<svg preserveAspectRatio="none" width="100%" height="100%" overflow="visible" style="display: block;" viewBox="0 0 49 49" fill="none" xmlns="http://www.w3.org/2000/svg">
<g id="Group">
<path id="Vector" d="M48.6844 24.3506C48.6844 36.6485 39.5711 46.8155 27.7322 48.4654C26.6252 48.6189 25.4926 48.6991 24.343 48.6991C23.016 48.6991 21.7129 48.5933 20.4439 48.3886C8.85227 46.5221 -7.81349e-05 36.4694 -7.81349e-05 24.3506C-7.81349e-05 10.9026 10.8991 0.000283948 24.3413 0.000283948C37.7836 0.000283948 48.6844 10.9026 48.6844 24.3506Z" fill="var(--fill-0, #1877F2)"/>
<path id="Vector_2" d="M27.7321 19.5505V24.855H34.2921L33.2534 32.0004H27.7321V48.4631C26.6252 48.6166 25.4926 48.6968 24.343 48.6968C23.016 48.6968 21.7129 48.591 20.4439 48.3863V32.0004H14.3939V24.855H20.4439V18.3647C20.4439 14.3382 23.7068 11.0726 27.7339 11.0726V11.076C27.7458 11.076 27.756 11.0726 27.768 11.0726H34.2938V17.2523H30.0297C28.7624 17.2523 27.7339 18.2811 27.7339 19.5488L27.7321 19.5505Z" fill="var(--fill-0, white)"/>
</g>
</svg>
