<svg width="49" height="49" viewBox="0 0 49 49" fill="none" xmlns="http://www.w3.org/2000/svg">
<path d="M10.1389 10.118C10.1389 8.1487 10.1389 7.16405 10.5495 6.62127C10.9072 6.14841 11.454 5.8558 12.0458 5.82046C12.7252 5.7799 13.5445 6.32609 15.1831 7.41846L36.5063 21.6339C37.8602 22.5366 38.5371 22.9879 38.773 23.5567C38.9793 24.054 38.9793 24.6129 38.773 25.1103C38.5371 25.6791 37.8602 26.1304 36.5063 27.033L15.1831 41.2485C13.5445 42.3409 12.7252 42.8871 12.0458 42.8465C11.454 42.8111 10.9072 42.5185 10.5495 42.0457C10.1389 41.5029 10.1389 40.5183 10.1389 38.549V10.118Z" fill="url(#paint0_linear_1_362)" stroke="url(#paint1_linear_1_362)" stroke-width="3.24444" stroke-linecap="round" stroke-linejoin="round"/>
<defs>
<linearGradient id="paint0_linear_1_362" x1="24.5333" y1="5.81836" x2="24.5333" y2="42.8486" gradientUnits="userSpaceOnUse">
<stop stop-color="#8E2DE2"/>
<stop offset="1" stop-color="#4A00E0"/>
</linearGradient>
<linearGradient id="paint1_linear_1_362" x1="24.5333" y1="5.81836" x2="24.5333" y2="42.8486" gradientUnits="userSpaceOnUse">
<stop stop-color="#8E2DE2"/>
<stop offset="1" stop-color="#4A00E0"/>
</linearGradient>
</defs>
</svg>
