<svg width="21" height="21" viewBox="0 0 21 21" fill="none" xmlns="http://www.w3.org/2000/svg">
<path d="M14.6888 2.33301L17.9333 5.57745M17.9333 5.57745L14.6888 8.8219M17.9333 5.57745H7.22659C5.86379 5.57745 5.18239 5.57745 4.66188 5.84267C4.20401 6.07596 3.83176 6.44821 3.59847 6.90608C3.33325 7.42659 3.33325 8.10799 3.33325 9.47079V9.63301M3.33325 15.3108H14.0399C15.4027 15.3108 16.0841 15.3108 16.6046 15.0456C17.0625 14.8123 17.4347 14.44 17.668 13.9822C17.9333 13.4616 17.9333 12.7802 17.9333 11.4175V11.2552M3.33325 15.3108L6.5777 18.5552M3.33325 15.3108L6.5777 12.0663" stroke="url(#paint0_linear_29_283)" stroke-width="1.62222" stroke-linecap="round" stroke-linejoin="round"/>
<defs>
<linearGradient id="paint0_linear_29_283" x1="10.6333" y1="2.33301" x2="10.6333" y2="18.5552" gradientUnits="userSpaceOnUse">
<stop stop-color="#8E2DE2"/>
<stop offset="1" stop-color="#4A00E0"/>
</linearGradient>
</defs>
</svg>
