<svg width="20" height="20" viewBox="0 0 20 20" fill="none" xmlns="http://www.w3.org/2000/svg">
<path d="M14.8112 12.4999L17.2445 14.9333M17.2445 14.9333L14.8112 17.3666M17.2445 14.9333H15.2726C14.5108 14.9333 14.1299 14.9333 13.7842 14.8283C13.4781 14.7353 13.1933 14.5829 12.9462 14.3798C12.667 14.1504 12.4557 13.8334 12.0332 13.1996L11.8371 12.9055M14.8112 2.7666L17.2445 5.19993M17.2445 5.19993L14.8112 7.63327M17.2445 5.19993H15.2726C14.5108 5.19993 14.1299 5.19993 13.7842 5.30494C13.4781 5.39789 13.1933 5.55029 12.9462 5.75341C12.667 5.98284 12.4557 6.29978 12.0332 6.93363L7.85589 13.1996C7.43331 13.8334 7.22203 14.1504 6.94287 14.3798C6.69574 14.5829 6.41099 14.7353 6.1049 14.8283C5.75915 14.9333 5.37824 14.9333 4.61644 14.9333H2.64453M2.64453 5.19993H4.61644C5.37824 5.19993 5.75915 5.19993 6.1049 5.30494C6.41099 5.39789 6.69574 5.55029 6.94287 5.75341C7.22203 5.98284 7.43331 6.29978 7.85589 6.93364L8.05194 7.22771" stroke="url(#paint0_linear_31_324)" stroke-width="1.62222" stroke-linecap="round" stroke-linejoin="round"/>
<defs>
<linearGradient id="paint0_linear_31_324" x1="9.94453" y1="2.7666" x2="9.94453" y2="17.3666" gradientUnits="userSpaceOnUse">
<stop stop-color="#8E2DE2"/>
<stop offset="1" stop-color="#4A00E0"/>
</linearGradient>
</defs>
</svg>
