<svg width="49" height="50" viewBox="0 0 49 50" fill="none" xmlns="http://www.w3.org/2000/svg">
<path d="M24.5547 0.935547H24.4438C11.0306 0.935547 0.156982 11.8091 0.156982 25.2224V25.3332C0.156982 38.7465 11.0306 49.62 24.4438 49.62H24.5547C37.9679 49.62 48.8415 38.7465 48.8415 25.3332V25.2224C48.8415 11.8091 37.9679 0.935547 24.5547 0.935547Z" fill="black"/>
<path d="M36.8422 20.2682V24.8649C36.0389 24.7864 34.995 24.6039 33.8403 24.1809C32.3325 23.6283 31.2101 22.8727 30.475 22.2877V31.5784L30.4562 31.5494C30.4682 31.7336 30.475 31.9212 30.475 32.1105C30.475 36.7243 26.7209 40.4802 22.1054 40.4802C17.4899 40.4802 13.7357 36.7243 13.7357 32.1105C13.7357 27.4967 17.4899 23.7392 22.1054 23.7392C22.5574 23.7392 23.0008 23.775 23.4341 23.8449V28.3751C23.0179 28.2267 22.571 28.1466 22.1054 28.1466C19.9204 28.1466 18.1414 29.9239 18.1414 32.1105C18.1414 34.2972 19.9204 36.0745 22.1054 36.0745C24.2903 36.0745 26.0693 34.2955 26.0693 32.1105C26.0693 32.0286 26.0676 31.9468 26.0625 31.8649V13.8105H30.6558C30.6729 14.1994 30.6882 14.5917 30.7053 14.9806C30.736 15.7465 31.0089 16.4816 31.4848 17.0837C32.0425 17.7915 32.8663 18.6137 34.0228 19.2703C35.1059 19.8844 36.1224 20.1471 36.8422 20.2716V20.2682Z" fill="#FF004F"/>
<path d="M35.2627 16.5372V21.1339C34.4594 21.0555 33.4155 20.873 32.2608 20.45C30.753 19.8973 29.6307 19.1417 28.8955 18.5567V27.8474L28.8768 27.8184C28.8887 28.0026 28.8955 28.1902 28.8955 28.3796C28.8955 32.9934 25.1414 36.7492 20.5259 36.7492C15.9104 36.7492 12.1562 32.9934 12.1562 28.3796C12.1562 23.7658 15.9104 20.0082 20.5259 20.0082C20.9779 20.0082 21.4214 20.044 21.8546 20.114V24.6442C21.4384 24.4958 20.9915 24.4156 20.5259 24.4156C18.341 24.4156 16.5619 26.1929 16.5619 28.3796C16.5619 30.5662 18.341 32.3435 20.5259 32.3435C22.7108 32.3435 24.4898 30.5645 24.4898 28.3796C24.4898 28.2977 24.4881 28.2158 24.483 28.1339V10.0762H29.0763C29.0934 10.4651 29.1087 10.8574 29.1258 11.2463C29.1565 12.0121 29.4294 12.7472 29.9053 13.3493C30.463 14.0572 31.2869 14.8793 32.4433 15.536C33.5264 16.1483 34.543 16.4127 35.2627 16.5372Z" fill="#00F7EF"/>
<path d="M36.2673 18.5475V23.1442C35.4639 23.0657 34.42 22.8832 33.2653 22.4602C31.7575 21.9076 30.6352 21.152 29.9001 20.5669V29.8577L29.8813 29.8287C29.8932 30.0129 29.9001 30.2005 29.9001 30.3898C29.9001 35.0036 26.1459 38.7595 21.5304 38.7595C16.9149 38.7595 13.1608 35.0036 13.1608 30.3898C13.1608 25.776 16.9149 22.0185 21.5304 22.0185C21.9824 22.0185 22.4259 22.0543 22.8591 22.1242V26.6544C22.4429 26.506 21.9961 26.4259 21.5304 26.4259C19.3455 26.4259 17.5665 28.2032 17.5665 30.3898C17.5665 32.5765 19.3455 34.3538 21.5304 34.3538C23.7154 34.3538 25.4944 32.5748 25.4944 30.3898C25.4944 30.3079 25.4926 30.2261 25.4875 30.1442V12.0898H30.0809C30.0979 12.4787 30.1133 12.871 30.1303 13.2599C30.161 14.0258 30.4339 14.7609 30.9098 15.363C31.4676 16.0708 32.2914 16.893 33.4478 17.5496C34.5309 18.162 35.5475 18.4264 36.2673 18.5509V18.5475Z" fill="white"/>
</svg>
