<svg width="49" height="50" viewBox="0 0 49 50" fill="none" xmlns="http://www.w3.org/2000/svg">
<path d="M48.9474 25.2787C48.9474 37.573 39.8345 47.737 27.9959 49.3864C26.889 49.5399 25.7565 49.62 24.6069 49.62C23.2799 49.62 21.9769 49.5143 20.7079 49.3096C9.11839 47.4436 0.266357 37.3939 0.266357 25.2787C0.266357 11.8347 11.1651 0.935547 24.6086 0.935547C38.0521 0.935547 48.9509 11.8347 48.9509 25.2787H48.9474Z" fill="#1C1C1B"/>
<path d="M10.1385 11.6699L21.3648 26.6797L10.0686 38.8836H12.6117L22.5024 28.1994L30.4931 38.8836H39.1456L27.2883 23.0296L37.8033 11.6699H35.2602L26.1524 21.5098L18.7927 11.6699H10.1402H10.1385ZM13.8772 13.5427H17.8512L35.4035 37.0108H31.4295L13.8772 13.5427Z" fill="white"/>
</svg>
