<svg preserveAspectRatio="none" width="100%" height="100%" overflow="visible" style="display: block;" viewBox="0 0 17 17" fill="none" xmlns="http://www.w3.org/2000/svg">
<path id="Icon" d="M13.1667 10.7333L15.6 13.1667M15.6 13.1667L13.1667 15.6M15.6 13.1667H13.6281C12.8663 13.1667 12.4854 13.1667 12.1396 13.0617C11.8335 12.9687 11.5488 12.8163 11.3017 12.6132C11.0225 12.3838 10.8112 12.0668 10.3886 11.433L10.1926 11.1389M13.1667 1L15.6 3.43333M15.6 3.43333L13.1667 5.86667M15.6 3.43333H13.6281C12.8663 3.43333 12.4854 3.43333 12.1396 3.53833C11.8335 3.63129 11.5488 3.78369 11.3017 3.98681C11.0225 4.21624 10.8112 4.53318 10.3886 5.16703L6.21136 11.433C5.78878 12.0668 5.57749 12.3838 5.29834 12.6132C5.05121 12.8163 4.76645 12.9687 4.46036 13.0617C4.11462 13.1667 3.73371 13.1667 2.97191 13.1667H1M1 3.43333H2.97191C3.73371 3.43333 4.11462 3.43333 4.46037 3.53833C4.76645 3.63129 5.05121 3.78369 5.29834 3.98681C5.57749 4.21624 5.78878 4.53317 6.21136 5.16703L6.40741 5.46111" stroke="url(#paint0_linear_3_274)" stroke-width="1.62222" stroke-linecap="round" stroke-linejoin="round"/>
<defs>
<linearGradient id="paint0_linear_3_274" x1="8.3" y1="1" x2="8.3" y2="15.6" gradientUnits="userSpaceOnUse">
<stop stop-color="#8E2DE2"/>
<stop offset="1" stop-color="#4A00E0"/>
</linearGradient>
</defs>
</svg>
