<svg preserveAspectRatio="none" width="100%" height="100%" overflow="visible" style="display: block;" viewBox="0 0 16 16" fill="none" xmlns="http://www.w3.org/2000/svg">
<path id="Icon" d="M15 1V15M3.59951 13.9204L9.43826 9.24939C9.97211 8.82231 10.239 8.60878 10.3357 8.3508C10.4204 8.12461 10.4204 7.87539 10.3357 7.6492C10.239 7.39122 9.97211 7.17769 9.43826 6.75061L3.59951 2.07961C2.76734 1.41387 2.35125 1.081 2.00108 1.08063C1.69654 1.0803 1.40845 1.21876 1.21846 1.45677C1 1.73045 1 2.2633 1 3.329V12.671C1 13.7367 1 14.2695 1.21846 14.5432C1.40845 14.7812 1.69654 14.9197 2.00108 14.9194C2.35125 14.919 2.76734 14.5861 3.59951 13.9204Z" stroke="var(--stroke-0, black)" stroke-width="2" stroke-linecap="round" stroke-linejoin="round"/>
</svg>
