<svg preserveAspectRatio="none" width="100%" height="100%" overflow="visible" style="display: block;" viewBox="0 0 33 41" fill="none" xmlns="http://www.w3.org/2000/svg">
<path id="Icon" d="M2 6.29964C2 4.33034 2 3.34569 2.4106 2.80291C2.76831 2.33005 3.31506 2.03744 3.90692 2.0021C4.5863 1.96154 5.40558 2.50773 7.04414 3.6001L28.3674 17.8156C29.7213 18.7182 30.3982 19.1695 30.6341 19.7383C30.8404 20.2357 30.8404 20.7946 30.6341 21.2919C30.3982 21.8607 29.7213 22.312 28.3674 23.2147L7.04414 37.4301C5.40558 38.5225 4.5863 39.0687 3.90692 39.0281C3.31506 38.9928 2.76831 38.7002 2.4106 38.2273C2 37.6845 2 36.6999 2 34.7306V6.29964Z" fill="url(#paint0_linear_3_236)" stroke="url(#paint1_linear_3_236)" stroke-width="3.24444" stroke-linecap="round" stroke-linejoin="round"/>
<defs>
<linearGradient id="paint0_linear_3_236" x1="16.3944" y1="2" x2="16.3944" y2="39.0302" gradientUnits="userSpaceOnUse">
<stop stop-color="#8E2DE2"/>
<stop offset="1" stop-color="#4A00E0"/>
</linearGradient>
<linearGradient id="paint1_linear_3_236" x1="16.3944" y1="2" x2="16.3944" y2="39.0302" gradientUnits="userSpaceOnUse">
<stop stop-color="#8E2DE2"/>
<stop offset="1" stop-color="#4A00E0"/>
</linearGradient>
</defs>
</svg>
