<svg preserveAspectRatio="none" width="100%" height="100%" overflow="visible" style="display: block;" viewBox="0 0 49 49" fill="none" xmlns="http://www.w3.org/2000/svg">
<g id="Group">
<path id="Vector" d="M24.3978 -0.000485077H24.2869C10.8737 -0.000485077 8.75012e-05 10.8731 8.75012e-05 24.2863V24.3972C8.75012e-05 37.8104 10.8737 48.684 24.2869 48.684H24.3978C37.811 48.684 48.6846 37.8104 48.6846 24.3972V24.2863C48.6846 10.8731 37.811 -0.000485077 24.3978 -0.000485077Z" fill="url(#paint0_linear_3_257)"/>
<g id="Group_2">
<path id="Vector_2" d="M31.8753 9.90456H16.811C12.6492 9.90456 9.26347 13.2903 9.26347 17.4521V31.2338C9.26347 35.3956 12.6492 38.7813 16.811 38.7813H31.8753C36.0371 38.7813 39.4229 35.3956 39.4229 31.2338V17.4521C39.4229 13.2903 36.0371 9.90456 31.8753 9.90456ZM11.926 17.4521C11.926 14.7589 14.1178 12.5671 16.811 12.5671H31.8753C34.5686 12.5671 36.7603 14.7589 36.7603 17.4521V31.2338C36.7603 33.927 34.5686 36.1188 31.8753 36.1188H16.811C14.1178 36.1188 11.926 33.927 11.926 31.2338V17.4521Z" fill="var(--fill-0, white)"/>
<path id="Vector_3" d="M24.3432 31.3622C28.2134 31.3622 31.3637 28.2136 31.3637 24.3418C31.3637 20.4699 28.2151 17.3213 24.3432 17.3213C20.4714 17.3213 17.3228 20.4699 17.3228 24.3418C17.3228 28.2136 20.4714 31.3622 24.3432 31.3622ZM24.3432 19.9855C26.7465 19.9855 28.7012 21.9402 28.7012 24.3435C28.7012 26.7467 26.7465 28.7014 24.3432 28.7014C21.94 28.7014 19.9853 26.7467 19.9853 24.3435C19.9853 21.9402 21.94 19.9855 24.3432 19.9855Z" fill="var(--fill-0, white)"/>
<path id="Vector_4" d="M32.0134 18.4543C33.0556 18.4543 33.905 17.6066 33.905 16.5628C33.905 15.5189 33.0573 14.6712 32.0134 14.6712C30.9696 14.6712 30.1219 15.5189 30.1219 16.5628C30.1219 17.6066 30.9696 18.4543 32.0134 18.4543Z" fill="var(--fill-0, white)"/>
</g>
</g>
<defs>
<linearGradient id="paint0_linear_3_257" x1="7.11267" y1="41.5714" x2="41.572" y2="7.1138" gradientUnits="userSpaceOnUse">
<stop stop-color="#FAAD4F"/>
<stop offset="0.35" stop-color="#DD2A7B"/>
<stop offset="0.62" stop-color="#9537B0"/>
<stop offset="1" stop-color="#515BD4"/>
</linearGradient>
</defs>
</svg>
