<svg preserveAspectRatio="none" width="100%" height="100%" overflow="visible" style="display: block;" viewBox="0 0 49 49" fill="none" xmlns="http://www.w3.org/2000/svg">
<g id="Group">
<path id="Vector" d="M48.681 24.3426C48.681 36.637 39.568 46.801 27.7295 48.4503C26.6226 48.6039 25.49 48.684 24.3405 48.684C23.0135 48.684 21.7104 48.5783 20.4415 48.3736C8.85197 46.5076 -6.9508e-05 36.4579 -6.9508e-05 24.3426C-6.9508e-05 10.8986 10.8987 -0.000485077 24.3422 -0.000485077C37.7857 -0.000485077 48.6844 10.8986 48.6844 24.3426H48.681Z" fill="var(--fill-0, #1C1C1B)"/>
<g id="layer1">
<path id="path1009" d="M9.87208 10.7348L21.0983 25.7445L9.80215 37.9485H12.3452L22.2359 27.2643L30.2267 37.9485H38.8791L27.0218 22.0944L37.5368 10.7348H34.9938L25.8859 20.5747L18.5263 10.7348H9.87377H9.87208ZM13.6107 12.6076H17.5848L35.1371 36.0757H31.163L13.6107 12.6076Z" fill="var(--fill-0, white)"/>
</g>
</g>
</svg>
