<svg preserveAspectRatio="none" width="100%" height="100%" overflow="visible" style="display: block;" viewBox="0 0 49 49" fill="none" xmlns="http://www.w3.org/2000/svg">
<g id="Group">
<path id="Vector" d="M24.3977 -0.000485077H24.2868C10.8736 -0.000485077 8.9966e-06 10.8731 8.9966e-06 24.2863V24.3972C8.9966e-06 37.8104 10.8736 48.684 24.2868 48.684H24.3977C37.8109 48.684 48.6845 37.8104 48.6845 24.3972V24.2863C48.6845 10.8731 37.8109 -0.000485077 24.3977 -0.000485077Z" fill="var(--fill-0, black)"/>
<g id="Group_2">
<path id="Vector_2" d="M36.6852 19.3337V23.9305C35.8818 23.852 34.838 23.6695 33.6832 23.2465C32.1754 22.6939 31.0531 21.9383 30.318 21.3532V30.6439L30.2992 30.6149C30.3112 30.7991 30.318 30.9868 30.318 31.1761C30.318 35.7899 26.5638 39.5457 21.9483 39.5457C17.3328 39.5457 13.5787 35.7899 13.5787 31.1761C13.5787 26.5623 17.3328 22.8047 21.9483 22.8047C22.4003 22.8047 22.8438 22.8406 23.277 22.9105V27.4407C22.8609 27.2923 22.414 27.2121 21.9483 27.2121C19.7634 27.2121 17.9844 28.9894 17.9844 31.1761C17.9844 33.3627 19.7634 35.14 21.9483 35.14C24.1333 35.14 25.9123 33.361 25.9123 31.1761C25.9123 31.0942 25.9106 31.0123 25.9055 30.9305V12.8761H30.4988C30.5158 13.265 30.5312 13.6573 30.5483 14.0462C30.579 14.812 30.8519 15.5472 31.3277 16.1493C31.8855 16.8571 32.7093 17.6792 33.8657 18.3359C34.9488 18.95 35.9654 19.2126 36.6852 19.3371V19.3337Z" fill="var(--fill-0, #FF004F)"/>
<path id="Vector_3" d="M35.1057 15.6023V20.1991C34.3023 20.1206 33.2585 19.9381 32.1037 19.5151C30.5959 18.9625 29.4736 18.2069 28.7385 17.6218V26.9125L28.7197 26.8835C28.7317 27.0677 28.7385 27.2554 28.7385 27.4447C28.7385 32.0585 24.9843 35.8143 20.3688 35.8143C15.7533 35.8143 11.9992 32.0585 11.9992 27.4447C11.9992 22.8309 15.7533 19.0733 20.3688 19.0733C20.8208 19.0733 21.2643 19.1092 21.6975 19.1791V23.7093C21.2814 23.5609 20.8345 23.4808 20.3688 23.4808C18.1839 23.4808 16.4049 25.258 16.4049 27.4447C16.4049 29.6313 18.1839 31.4086 20.3688 31.4086C22.5538 31.4086 24.3328 29.6296 24.3328 27.4447C24.3328 27.3628 24.3311 27.281 24.3259 27.1991V9.14131H28.9193C28.9363 9.5302 28.9517 9.9225 28.9687 10.3114C28.9994 11.0772 29.2724 11.8124 29.7482 12.4145C30.306 13.1223 31.1298 13.9444 32.2862 14.6011C33.3693 15.2134 34.3859 15.4778 35.1057 15.6023Z" fill="var(--fill-0, #00F7EF)"/>
<path id="Vector_4" d="M36.1103 17.6116V22.2083C35.3069 22.1299 34.263 21.9474 33.1083 21.5244C31.6005 20.9717 30.4782 20.2161 29.7431 19.6311V28.9218L29.7243 28.8928C29.7362 29.077 29.7431 29.2646 29.7431 29.454C29.7431 34.0678 25.9889 37.8236 21.3734 37.8236C16.7579 37.8236 13.0038 34.0678 13.0038 29.454C13.0038 24.8402 16.7579 21.0826 21.3734 21.0826C21.8254 21.0826 22.2689 21.1184 22.7021 21.1884V25.7186C22.2859 25.5702 21.8391 25.49 21.3734 25.49C19.1885 25.49 17.4095 27.2673 17.4095 29.454C17.4095 31.6406 19.1885 33.4179 21.3734 33.4179C23.5584 33.4179 25.3374 31.6389 25.3374 29.454C25.3374 29.3721 25.3356 29.2902 25.3305 29.2083V11.154H29.9239C29.9409 11.5429 29.9563 11.9352 29.9733 12.3241C30.004 13.0899 30.2769 13.825 30.7528 14.4271C31.3106 15.135 32.1344 15.9571 33.2908 16.6138C34.3739 17.2261 35.3905 17.4905 36.1103 17.615V17.6116Z" fill="var(--fill-0, white)"/>
</g>
</g>
</svg>
