<svg preserveAspectRatio="none" width="100%" height="100%" overflow="visible" style="display: block;" viewBox="0 0 14 14" fill="none" xmlns="http://www.w3.org/2000/svg">
<path id="Icon" d="M12.3556 1V12.3556M3.10849 11.4799L7.84437 7.69117C8.27738 7.34476 8.49388 7.17156 8.57227 6.96231C8.64099 6.77885 8.64099 6.57671 8.57227 6.39324C8.49388 6.18399 8.27738 6.01079 7.84437 5.66438L3.10849 1.87568C2.43351 1.3357 2.09602 1.0657 1.81199 1.0654C1.56497 1.06513 1.33129 1.17744 1.17719 1.37049C1 1.59248 1 2.02468 1 2.88908V10.4665C1 11.3309 1 11.7631 1.17719 11.9851C1.33129 12.1781 1.56497 12.2904 1.81199 12.2902C2.09602 12.2899 2.43351 12.0199 3.10849 11.4799Z" stroke="url(#paint0_linear_3_234)" stroke-width="1.62222" stroke-linecap="round" stroke-linejoin="round"/>
<defs>
<linearGradient id="paint0_linear_3_234" x1="6.67778" y1="1" x2="6.67778" y2="12.3556" gradientUnits="userSpaceOnUse">
<stop stop-color="#8E2DE2"/>
<stop offset="1" stop-color="#4A00E0"/>
</linearGradient>
</defs>
</svg>
