<svg preserveAspectRatio="none" width="100%" height="100%" overflow="visible" style="display: block;" viewBox="0 0 20 22" fill="none" xmlns="http://www.w3.org/2000/svg">
<path id="Icon" d="M15 1L19 5M19 5L15 9M19 5H5.8C4.11984 5 3.27976 5 2.63803 5.32698C2.07354 5.6146 1.6146 6.07354 1.32698 6.63803C1 7.27976 1 8.11984 1 9.8V10M1 17H14.2C15.8802 17 16.7202 17 17.362 16.673C17.9265 16.3854 18.3854 15.9265 18.673 15.362C19 14.7202 19 13.8802 19 12.2V12M1 17L5 21M1 17L5 13" stroke="var(--stroke-0, black)" stroke-width="2" stroke-linecap="round" stroke-linejoin="round"/>
</svg>
