<svg preserveAspectRatio="none" width="100%" height="100%" overflow="visible" style="display: block;" viewBox="0 0 22 22" fill="none" xmlns="http://www.w3.org/2000/svg">
<path id="Icon" d="M15 15V17.8C15 18.9201 15 19.4802 14.782 19.908C14.5903 20.2843 14.2843 20.5903 13.908 20.782C13.4802 21 12.9201 21 11.8 21H4.2C3.0799 21 2.51984 21 2.09202 20.782C1.71569 20.5903 1.40973 20.2843 1.21799 19.908C1 19.4802 1 18.9201 1 17.8V10.2C1 9.0799 1 8.51984 1.21799 8.09202C1.40973 7.71569 1.71569 7.40973 2.09202 7.21799C2.51984 7 3.0799 7 4.2 7H7M10.2 15H17.8C18.9201 15 19.4802 15 19.908 14.782C20.2843 14.5903 20.5903 14.2843 20.782 13.908C21 13.4802 21 12.9201 21 11.8V4.2C21 3.0799 21 2.51984 20.782 2.09202C20.5903 1.71569 20.2843 1.40973 19.908 1.21799C19.4802 1 18.9201 1 17.8 1H10.2C9.07989 1 8.51984 1 8.09202 1.21799C7.71569 1.40973 7.40973 1.71569 7.21799 2.09202C7 2.51984 7 3.07989 7 4.2V11.8C7 12.9201 7 13.4802 7.21799 13.908C7.40973 14.2843 7.71569 14.5903 8.09202 14.782C8.51984 15 9.07989 15 10.2 15Z" stroke="var(--stroke-0, black)" stroke-width="2" stroke-linecap="round" stroke-linejoin="round"/>
</svg>
