<svg preserveAspectRatio="none" width="100%" height="100%" overflow="visible" style="display: block;" viewBox="0 0 43 43" fill="none" xmlns="http://www.w3.org/2000/svg">
<path id="Icon" d="M29.8056 29.8056V35.5667C29.8056 37.8713 29.8056 39.0237 29.357 39.9039C28.9625 40.6782 28.333 41.3078 27.5587 41.7023C26.6784 42.1508 25.5261 42.1508 23.2214 42.1508H7.58413C5.27947 42.1508 4.12714 42.1508 3.24687 41.7023C2.47257 41.3078 1.84304 40.6782 1.44852 39.9039C1 39.0237 1 37.8713 1 35.5667V19.9294C1 17.6247 1 16.4724 1.44852 15.5921C1.84304 14.8178 2.47257 14.1883 3.24687 13.7938C4.12714 13.3452 5.27947 13.3452 7.58413 13.3452H13.3452M19.9294 29.8056H35.5667C37.8713 29.8056 39.0237 29.8056 39.9039 29.357C40.6782 28.9625 41.3078 28.333 41.7023 27.5587C42.1508 26.6784 42.1508 25.5261 42.1508 23.2214V7.58413C42.1508 5.27947 42.1508 4.12714 41.7023 3.24687C41.3078 2.47257 40.6782 1.84304 39.9039 1.44852C39.0237 1 37.8713 1 35.5667 1H19.9294C17.6247 1 16.4724 1 15.5921 1.44852C14.8178 1.84304 14.1883 2.47257 13.7938 3.24687C13.3452 4.12714 13.3452 5.27947 13.3452 7.58413V23.2214C13.3452 25.5261 13.3452 26.6784 13.7938 27.5587C14.1883 28.333 14.8178 28.9625 15.5921 29.357C16.4724 29.8056 17.6247 29.8056 19.9294 29.8056Z" stroke="var(--stroke-0, #00FFFF)" stroke-width="1.61905" stroke-linecap="round" stroke-linejoin="round"/>
</svg>
